<?xml version="1.0" encoding="iso-8859-1"?>
<!-- Generator: Adobe Illustrator 21.0.0, SVG Export Plug-In . SVG Version: 6.00 Build 0)  -->
<svg xmlns="http://www.w3.org/2000/svg" xmlns:xlink="http://www.w3.org/1999/xlink" version="1.1" id="Capa_1" x="0px" y="0px" viewBox="0 0 512 512" style="enable-background:new 0 0 512 512;" xml:space="preserve" width="512" height="512">
<g>
	<g>
		<path style="fill:#737EE6;" d="M481.013,391c-4.57,0-9.067-2.065-12.012-6.006l-53.994-71.997    c-4.98-6.621-3.633-16.025,3.003-20.991c6.621-4.995,16.011-3.647,20.991,3.003l53.994,71.997    c4.98,6.621,3.633,16.025-3.003,20.991C487.297,390.019,484.148,391,481.013,391z"/>
	</g>
	<path style="fill:#76E2F8;" d="M345.998,437v60c0,8.399-6.599,15-15,15h-300c-8.401,0-15-6.601-15-15V76c0-8.401,6.599-15,15-15h60   c8.401,0,15,6.599,15,15l105,161.1l120,183.9C339.399,421,345.998,428.599,345.998,437z"/>
	<path style="fill:#25D9F8;" d="M345.998,437v60c0,8.399-6.599,15-15,15h-120V237.1l120,183.9   C339.399,421,345.998,428.599,345.998,437z"/>
	<path style="fill:#F2F2FC;" d="M405.998,121v316c0,8.399-6.599,15-15,15h-300c-8.401,0-15-6.601-15-15V15c0-8.401,6.599-15,15-15   h195l30,91L405.998,121z"/>
	<path style="fill:#D8D8FC;" d="M405.998,121v316c0,8.399-6.599,15-15,15h-180V0h75l30,91L405.998,121z"/>
	<path style="fill:#2C3B73;" d="M390.998,331c-41.353,0-75-33.647-75-75s33.647-75,75-75s75,33.647,75,75S432.351,331,390.998,331z"/>
	<path style="fill:#76E2F8;" d="M390.998,301c-24.814,0-45-20.186-45-45s20.186-45,45-45s45,20.186,45,45S415.813,301,390.998,301z"/>
	<g>
		<path style="fill:#979FEF;" d="M210.998,61c-24.901,0-45,20.099-45,45c0,24.899,20.099,45,45,45s45-20.101,45-45    C255.998,81.099,235.899,61,210.998,61z"/>
	</g>
	<g>
		<path style="fill:#979FEF;" d="M210.998,151c-41.4,0-75,33.6-75,75v30c0,8.399,6.599,15,15,15h120c8.401,0,15-6.601,15-15v-30    C285.998,184.6,252.398,151,210.998,151z"/>
	</g>
	<g>
		<path style="fill:#61729B;" d="M285.998,316c0,8.399-6.599,15-15,15h-120c-8.401,0-15-6.601-15-15c0-8.401,6.599-15,15-15h120    C279.399,301,285.998,307.599,285.998,316z"/>
	</g>
	<g>
		<path style="fill:#61729B;" d="M285.998,376c0,8.399-6.599,15-15,15h-120c-8.401,0-15-6.601-15-15c0-8.401,6.599-15,15-15h120    C279.399,361,285.998,367.599,285.998,376z"/>
	</g>
	<path style="fill:#737EE6;" d="M210.998,151V61c24.901,0,45,20.099,45,45C255.998,130.899,235.899,151,210.998,151z"/>
	<path style="fill:#47568C;" d="M285.998,376c0,8.399-6.599,15-15,15h-60v-30h60C279.399,361,285.998,367.599,285.998,376z"/>
	<path style="fill:#47568C;" d="M270.998,331h-60v-30h60c8.401,0,15,6.599,15,15C285.998,324.399,279.399,331,270.998,331z"/>
	<path style="fill:#737EE6;" d="M285.998,226v30c0,8.399-6.599,15-15,15h-60V151C252.398,151,285.998,184.6,285.998,226z"/>
	<path style="fill:#A3A3D1;" d="M285.998,106c0,8.291,6.709,15,15,15h105l-120-121V106z"/>
</g>















</svg>
