<?xml version="1.0"?>
<svg xmlns="http://www.w3.org/2000/svg" id="Layer_1" data-name="Layer 1" viewBox="0 0 512 512" width="512px" height="512px" class=""><g><title class="active-path" style="fill:#FDFCFC" data-old_color="#FCF9F9">edit</title><path d="M273.823,498.577a7,7,0,0,0,7.164,1.691L352.11,476.56c.038-.013.074-.032.111-.045q.312-.109.613-.249c.059-.027.118-.053.176-.082a7.038,7.038,0,0,0,.7-.393l.019-.011a7.075,7.075,0,0,0,.656-.49c.06-.05.115-.105.174-.157.1-.087.2-.17.292-.264L467.611,362.105a7,7,0,0,0,0-9.9L420.2,304.789a7,7,0,0,0-9.9,0L344.9,370.182a62.616,62.616,0,0,0-13.371-6.161L260.7,341.058V308.739a102.709,102.709,0,0,0,48.221-68.846l4.156-14.294a32.869,32.869,0,0,0,21.759-39.065,26.184,26.184,0,0,0-17.059-18.722V121.136a109.763,109.763,0,0,0-219.526,0V167.8a26.188,26.188,0,0,0-17.1,18.739,32.873,32.873,0,0,0,21.76,39.064l4.157,14.294a102.7,102.7,0,0,0,48.22,68.846v32.319L84.461,364.021c-19.782,6.415-34.783,21.862-40.126,41.319q-.314,1.14-.582,2.291a57.134,57.134,0,0,0-1.414,13.125v51.6a7,7,0,0,0,7,7H276.153l-4.02,12.061A7,7,0,0,0,273.823,498.577Zm16.019-16.018,15.7-47.1,31.4,31.4Zm99.325-136.841,37.516,37.516L349.9,460.019,312.381,422.5Zm26.078-26.079,37.517,37.516-16.18,16.18-37.516-37.517ZM216.881,123.164c8.93,9.5,36.973,34.724,86.9,39.854v3.6c-19.339-.475-76.524-4.723-121.933-36.891l.627-.081A298.269,298.269,0,0,0,216.881,123.164Zm-104.626-2.028a95.763,95.763,0,0,1,191.526,0V148.92c-36.665-4.161-60.156-20.4-71.32-30.247,18.726-6.144,34.675-14.222,47.672-24.19a7,7,0,1,0-8.52-11.109c-26.564,20.373-63.982,28.839-90.695,32.354a327.251,327.251,0,0,1-52.851,2.736,7,7,0,0,0-7.351,6.673l-1.7,37.313a6.669,6.669,0,0,1-3.541,5.647,7,7,0,0,1-3.221.837Zm8.509,115.829a6.676,6.676,0,0,0-.159-.66l-5.145-17.7a7,7,0,0,0-5.691-5.7,18.783,18.783,0,0,1-15.557-18.543,18.986,18.986,0,0,1,.539-4.5,12.134,12.134,0,0,1,8.566-8.979A20.763,20.763,0,0,0,133,163.087l1.387-30.464c6.03.057,15.593-.057,27.29-.889,31.215,26.769,69.542,38.645,96.493,43.9,29.769,5.805,51.951,5.032,52.877,5,.155-.006.307-.025.46-.041a12.246,12.246,0,0,1,9.731,9.273,18.853,18.853,0,0,1-15.016,23.042,7,7,0,0,0-5.692,5.7l-5.145,17.7a6.676,6.676,0,0,0-.159.66,88.761,88.761,0,0,1-174.465,0ZM208,323.326a102.391,102.391,0,0,0,38.708-7.583v26.2a90.033,90.033,0,0,1-77.415,0v-26.2A102.4,102.4,0,0,0,208,323.326ZM56.339,465.352v-44.6a43.4,43.4,0,0,1,1.048-9.946q.206-.883.447-1.76c4.092-14.9,15.66-26.755,30.945-31.71l72.784-23.6a103.994,103.994,0,0,0,92.867,0l72.784,23.6a48.716,48.716,0,0,1,7.427,3.1l-37.11,37.11c-.094.094-.177.2-.265.293-.051.058-.105.112-.155.171a7.2,7.2,0,0,0-.492.66l0,0a6.837,6.837,0,0,0-.4.711c-.027.055-.052.111-.077.166a6.732,6.732,0,0,0-.255.626c-.012.036-.03.068-.042.1L280.82,465.352Z" data-original="#000000" class="active-path" data-old_color="#FCF9F9" fill="#FDFCFC"/></g> </svg>
