<?xml version="1.0" encoding="utf-8"?>
<!-- Generator: Adobe Illustrator 22.1.0, SVG Export Plug-In . SVG Version: 6.00 Build 0)  -->
<!DOCTYPE svg PUBLIC "-//W3C//DTD SVG 1.1//EN" "http://www.w3.org/Graphics/SVG/1.1/DTD/svg11.dtd">
<svg version="1.1" id="Layer_1" xmlns="http://www.w3.org/2000/svg" xmlns:xlink="http://www.w3.org/1999/xlink" x="0px" y="0px"
	 viewBox="0 0 1539.5 1024" style="enable-background:new 0 0 1539.5 1024;" xml:space="preserve">
<style type="text/css">
	.st0{fill:#EEF9FD;}
	.st1{fill:#CEEEFD;}
	.st2{fill:#BFE8F7;}
	.st3{fill:#ADE3FB;}
	.st4{fill:#94D8FB;}
	.st5{fill:#98DAFC;}
	.st6{fill:#4F9DCE;}
	.st7{fill:#8FD4FB;}
	.st8{opacity:0.5;}
	.st9{fill:#80D2F8;}
	.st10{fill:#8CD6FB;}
	.st11{fill:#C2E8FB;}
	.st12{fill:#D7F5FF;}
	.st13{fill:#FFFFFF;}
	.st14{fill:#7DCBEA;}
	.st15{fill:#72B9DD;}
	.st16{fill-opacity:0.1;}
	.st17{fill:#FFFFFF;fill-opacity:0.2;}
	.st18{fill:#DEF2FD;}
	.st19{fill:#DFF3FE;}
	.st20{fill:#DFF2FF;}
	.st21{fill:#C6EAFF;}
	.st22{fill:#C7EAFD;}
	.st23{fill:#B9E5FA;}
	.st24{fill:#F9FDFE;}
	.st25{fill:#CFEEFF;}
</style>
<rect x="-0.1" y="0.6" class="st0" width="1539.6" height="1021.4"/>
<rect x="0.1" y="1.9" class="st1" width="804.2" height="549.3"/>
<g>
	<g>
		<path class="st2" d="M0,520.5c0,0,411.6-0.8,506.7-15.7c95.1-14.9,297.2,23.5,297.2,23.5l0.1,292.7l-804,0L0,520.5z"/>
		<g id="Scene_x2F_Plants">
			<path id="Leaf-Bottom" class="st3" d="M628.9,347.8c-2.4-1.2-5.5,0.2-4.2,3.3c1.4,3.3,6.6,3.4,9.5,3.3c-0.3,0-1.2-3.1-1.6-3.5
				C631.7,349.5,630.3,348.6,628.9,347.8z M656.1,407.2C656.7,407.7,656.1,407.3,656.1,407.2z M626.6,362.8
				c-1.4,1.1-1.4,2.9-0.3,4.2c1.3,1.5,3.8,1.4,5.6,1.3c0.8-0.1,5.2-0.4,4.2-1.1c0.1,0,0.2,0.1,0.4,0.2c0.1,0.4,0.2,0.7,0.3,1.1
				c0,0,0,0-0.1,0c0,0,0.1,0,0.1,0c1.1,3.5,2.6,6.9,4.6,10c-0.7-0.3-1.5-0.5-2.3-0.6c-2.3-0.3-7.2,1.5-4.6,4.6
				c2.5,2.9,6.3-0.2,9.1-0.7c2.7,3.8,5.7,7.4,8.9,11c-0.2,0.1-0.4,0.2-0.5,0.4c-1.3-0.6-2.6-1.6-3.7-1.8c-1.7-0.4-5.1-0.6-6.4,0.9
				c-1.6,1.9,0.1,3.4,2,3.7c2.7,0.5,6.2-0.8,8.8-1.7c0.3,0.1,0.6,0,0.8-0.3c0.1,0,0.1,0,0.2-0.1c3.2,3.5,6.5,6.9,9.8,10.2
				c0,0-0.1,0-0.1,0c-0.9-0.6-1.8-1-2.8-1.3c-2.3-0.6-5-0.6-6.9,1.1c-1.9,1.7-2.5,4.6-0.6,6.4c3.9,3.7,9.6-4.8,11.5-5.1
				c3.3,3.3,6.9,6.4,10.5,9.5c-0.4-0.1-0.8-0.2-1.3-0.3c-3.5-0.3-11.8,4-7.5,8.2c3.8,3.7,8.1-3.4,11.2-5.9c3.4,2.8,6.8,5.7,10.1,8.6
				c-1.8-0.5-3.5-0.5-5.5,0c-2,0.6-5.2,2.1-4,4.8c1.3,2.7,5.2,1.5,7.2,0.6c1.1-0.5,3.3-2.1,5.2-2.8c5.3,5,9.8,10.5,13.3,16.9
				c2.2,4,3.8,8.3,5,12.8c0.7,2.8,2.2,7.6,1.9,11.3c1.4-7.4-1.1-16.2-3.8-22.8c-2.5-6.1-6.2-11.4-10.5-16.2c1.1-3.3,10.3-8,4.8-11.1
				c-2.9-1.6-5.9,1.1-6.5,3.9c-0.4,1.9,0.2,4.4,0.9,6.3c-1.4-1.5-2.8-2.9-4.3-4.2c-2-1.9-4.1-3.7-6.2-5.5c3.4-3.2,6.7-12.5,2.1-14
				c-6.8-2.2-3.5,10.4-3.1,12.8c0.1,0,0.2,0,0.3-0.1c0,0.2-0.1,0.4-0.1,0.7c-4-3.4-8.1-6.8-12-10.3c0.4-0.3,0.9-1.3,1.4-1.8
				c1-1.2,2-2.5,2.7-3.9c1.1-2.2,2.2-5.8-0.8-7.1c-3.2-1.4-4.7,2.6-4.7,5c0,1.7,0.4,3.2,0.7,4.8c0.1,0.5-0.2,2.8,0.5,1.8
				c0,0.4,0,0.6,0,0.8c-0.7-0.6-1.4-1.3-2.1-1.9c0-0.1,0.1-0.2,0.1-0.3c0-0.7-0.7-1-1.2-0.8c-0.9-0.9-1.8-1.8-2.7-2.7
				c-1.9-1.9-3.8-3.9-5.7-5.9c0.4-0.4,0.2-0.8,0.6-1.2c0.4-0.4,1.1-0.6,1.6-0.9c1.1-0.9,2.1-2.2,2.8-3.4c1.1-2.1,2.6-6.5-0.7-7.4
				c-3.4-1-5.1,3.2-5.4,5.8c0,0.5,0.3,5.1,0.6,6.8c-3.5-3.7-7-7.6-10.1-11.5c1,0,3.7-2,4.2-2.5c1.3-1.3,3.5-4.2,1.1-5.7
				c-2.1-1.3-4.6,0.6-5.5,2.5c-0.1,0.3-0.7,3.2-0.7,4.5c-1.3-1.7-2.5-3.3-3.7-5c-0.8-1.1-1.5-2.3-2.2-3.4c0.2-0.1,0.3-0.3,0.5-0.5
				c3.5-0.6,7.9-6,3.8-7.9c-1.9-0.9-4,1-5,2.5c-0.2,0.3-0.5,1.9-0.8,3.1c-1.9-3.9-3.4-8-4.5-12.2c0.3-0.1,0.6-0.3,0.6-0.7
				c1.7-1,3-1.8,4.2-3.6c0.7-1.1,2-3.8-0.1-4.4c-2.8-0.8-4.5,3.4-4.8,5.5c0,0.2,0,1,0,1.6c-0.1,0-0.2,0-0.3,0
				c-0.6-2.6-1.2-5.3-1.6-7.9c1.5-0.5,1.8-8.5,0.8-9.6c-2.3-2.5-3.9,1.1-3.7,3.1c0.1,2.3,1.2,4.4,2.4,6.2c0.1,0.2,0.1,0.2,0.1-0.1
				c0,0.1,0.1,0.2,0.1,0.3c-0.1,1.2-0.2,2.4-0.1,3.5c0.2,3.1,0.5,6.1,1,9.2c0.1,0.7,0.3,1.5,0.4,2.2c-1.2-1-2.9-2-3.5-2.3
				C630.9,362.4,628.3,361.6,626.6,362.8z M710.9,469.1c-0.1,1.1-0.3,2-0.6,2.9C710.5,471,710.7,470.1,710.9,469.1z"/>
			<path id="Leaf-Top" class="st3" d="M194.7,181.3c3.4-1.7,7.9,0.3,6,4.7c-2,4.8-9.5,4.8-13.7,4.7c0.4,0,1.8-4.4,2.2-5
				C190.6,183.8,192.6,182.3,194.7,181.3z M155.6,268C154.4,269.1,155.5,268.1,155.6,268z M198.6,203.4c2,1.5,2.1,4.2,0.5,6.1
				c-2,2.2-5.6,2.1-8.3,1.9c-1.2-0.1-7.7-0.6-6.2-1.7c-0.1,0-0.4,0.2-0.6,0.3c-0.1,0.5-0.3,1-0.4,1.5c0,0,0.1,0,0.1,0.1
				c0,0-0.1,0-0.1-0.1c-1.6,5.1-3.8,10-6.7,14.5c1.1-0.4,2.2-0.7,3.4-0.9c3.4-0.4,10.5,2.2,6.7,6.6c-3.6,4.3-9.3-0.3-13.4-0.9
				c-4,5.5-8.4,10.8-13,16c0.3,0.1,0.5,0.3,0.7,0.6c1.9-0.9,3.8-2.3,5.5-2.6c2.5-0.5,7.6-0.8,9.4,1.4c2.3,2.7-0.2,4.9-2.9,5.4
				c-3.9,0.8-9.1-1.2-12.9-2.4c-0.4,0.1-0.9,0-1.2-0.4c-0.1,0-0.2-0.1-0.2-0.1c-4.7,5.1-9.5,10-14.4,14.9c0.1,0,0.1,0,0.2,0
				c1.3-0.8,2.6-1.5,4.1-1.8c3.4-0.8,7.4-0.8,10.1,1.6c2.7,2.4,3.7,6.6,0.9,9.4c-5.7,5.4-14-7-16.9-7.5c-4.9,4.9-10.1,9.4-15.4,13.8
				c0.6-0.2,1.2-0.3,1.8-0.4c5.2-0.5,17.3,5.8,11,12c-5.5,5.4-11.9-5-16.4-8.6c-5,4.1-10,8.2-14.8,12.5c2.6-0.7,5.2-0.8,8,0
				c2.9,0.9,7.7,3.1,5.8,7c-1.9,4-7.6,2.2-10.5,0.9c-1.6-0.7-4.9-3-7.7-4c-7.8,7.2-14.5,15.2-19.6,24.6c-3.2,5.9-5.6,12.1-7.3,18.6
				c-1.1,4.1-3.2,11-2.8,16.4c-2-10.7,1.7-23.6,5.6-33.2c3.6-8.8,9.1-16.5,15.5-23.5c-1.6-4.8-15.1-11.6-7-16.1
				c4.3-2.3,8.7,1.5,9.6,5.7c0.6,2.8-0.3,6.4-1.4,9.1c2-2.1,4.1-4.2,6.2-6.2c3-2.7,6-5.4,9.1-8c-5.1-4.7-9.8-18.2-3.1-20.4
				c10-3.2,5.2,15.1,4.5,18.6c-0.2,0-0.4,0-0.5-0.2c0.1,0.3,0.1,0.7,0.2,1c5.9-5,11.9-9.9,17.6-15.1c-0.5-0.4-1.3-1.8-2-2.6
				c-1.5-1.7-2.9-3.6-3.9-5.6c-1.6-3.2-3.2-8.4,1.1-10.3c4.7-2.1,6.9,3.7,6.9,7.2c0,2.4-0.6,4.7-1,7c-0.1,0.7,0.3,4-0.7,2.6
				c0,0.5,0.1,0.9,0,1.2c1-0.9,2.1-1.9,3.1-2.8c0-0.1-0.1-0.2-0.1-0.4c-0.1-1,1-1.4,1.7-1.1c1.3-1.3,2.7-2.6,4-3.9
				c2.8-2.8,5.6-5.6,8.4-8.6c-0.6-0.5-0.4-1.2-0.9-1.8c-0.6-0.5-1.7-0.8-2.4-1.4c-1.7-1.3-3.1-3.1-4.1-5c-1.7-3-3.8-9.4,1.1-10.8
				c5-1.5,7.5,4.6,7.9,8.5c0.1,0.7-0.5,7.4-0.9,9.8c5.2-5.4,10.3-11,14.9-16.8c-1.4,0-5.4-2.9-6.2-3.6c-2-1.9-5.1-6.1-1.6-8.3
				c3.1-2,6.8,0.9,8.1,3.6c0.2,0.5,1,4.7,1,6.6c1.9-2.4,3.7-4.9,5.4-7.3c1.1-1.6,2.2-3.3,3.2-5c-0.2-0.1-0.5-0.4-0.7-0.7
				c-5.1-0.9-11.6-8.7-5.6-11.5c2.8-1.3,5.9,1.4,7.3,3.6c0.3,0.4,0.7,2.7,1.1,4.5c2.8-5.7,5-11.6,6.7-17.8c-0.4-0.1-0.8-0.4-0.9-1
				c-2.5-1.4-4.4-2.6-6.1-5.2c-1.1-1.7-3-5.5,0.2-6.4c4.1-1.2,6.7,5,7,8c0,0.4,0,1.4,0,2.3c0.1,0,0.3,0,0.4,0
				c0.9-3.8,1.7-7.6,2.3-11.5c-2.2-0.7-2.6-12.3-1.1-14c3.3-3.7,5.7,1.6,5.5,4.5c-0.2,3.3-1.7,6.4-3.6,9.1c-0.2,0.3-0.1,0.3-0.2-0.1
				c0,0.2-0.1,0.3-0.2,0.4c0.1,1.8,0.3,3.6,0.2,5.1c-0.3,4.5-0.8,8.9-1.5,13.3c-0.2,1.1-0.4,2.1-0.6,3.2c1.8-1.5,4.2-2.9,5.2-3.3
				C192.4,202.7,196.2,201.6,198.6,203.4z M74.6,357.6c0.1,1.4,0.5,2.7,1.2,3.8C75.3,360.2,74.9,358.9,74.6,357.6z"/>
			<g id="Plant-Right" transform="translate(482.000000, 208.000000)">
				<path id="Leaf-Me-Alone_x21_" class="st4" d="M191.3,244.1c6.3-0.3,14,3.3,14.7,10.2c0.5,5,0.3,9.9,1.1,14.8
					c0.6,4,1.9,7.8,3.6,11.4c1.7,3.5,5.1,6.4,6,10.1c0.6,2.4,0.3,5.7-0.5,8c-1,2.8-0.5,2.6,1.5,4.9c3.8,4.6,7.1,9.3,9.5,14.8
					c3.4,7.9,5.7,17.2,4.4,25.9c-0.2,1.1-0.4,5.1-1.9,5.3c-1.7,0.3-0.9-2-0.8-2.7c0.6-4.7,1.1-8.7,0.4-13.5
					c-2.7-18.3-15.8-30.3-24.3-45.8c-0.5-0.8-1.5-2.7-2.1-4c-1.1-2-2.2-5.8-3.7-7.2c-2.8-2.8-0.2,2.8,0.3,3.9c0.7,1.3,1.4,2.8,2.1,4
					c3.2,5.5,6.8,11.4,10.1,17.1c-14.3,3.3-24.4-13.9-28.2-25.3C180.4,266.7,176.6,244.9,191.3,244.1"/>
				<path id="Leaf-Me-Alone_x21__1_" class="st5" d="M275.4,226.8c-10.5,0.8-17.2,7.8-20.4,17.4c-1.7,5.2-1.9,10.6-2.8,15.9
					c-1.4,8.1-4.5,14.2-10.4,19.9c-1.8,1.8-3.2,3.6-4.2,5.6c-1.9,2-3.6,4.2-4.8,6.9c-1.6,3.4-2,7.6-0.2,11c0.5,0.9,1.7,2.8,2.9,3.6
					c-4.7,10-7.3,21-7,31.9c0.2,6.6,0.5,13.2,0.9,19.8c0.1,1.8,0.7,4.7,1.5,1.7c0.8-2.7-0.2-7-0.3-9.8c-0.4-13.8-0.8-26.4,4.9-39.3
					c0.6-1.4,1.2-2.7,1.9-4c0,0,0.1,0,0.1-0.1c0,0,0,0,0.1,0.1c0-0.1,0.1-0.2,0.2-0.3c0.2-0.2,0.4-0.4,0.5-0.7
					c0.5-0.7,1.1-1.5,1.1-2c0,0,0,0,0,0c3.5-5.8,7.6-11.2,11.7-16.5c0,0,4.5-6.1,3.8-2.7c-0.3,1.6-3.6,4.7-5,6.5
					c-3,3.8-6.4,8.7-9.3,13.4c-0.4,0.2-0.9,1.3-1.3,2.1c-0.2,0.4-0.4,0.8-0.6,1.2c10.2,3.4,18.2-3.4,23.6-11.3c0,0,0,0,0,0
					c1.7-2.2,3.3-4.4,5.5-6.1c3.5-2.9,7.3-3.4,11.5-4.8c11.3-3.9,16.2-18.6,17.7-29.5C298.6,244.4,290.2,225.6,275.4,226.8"/>
				<path id="Leaf-Me-Alone_x21__2_" class="st5" d="M254.7,192.3c-10.8,11.2-16,26.7-20.1,41.4c-4.6,16.3-7.6,32.9-7.8,49.9
					c-0.1,11.1-0.4,22.4,0.3,33.5c0.2,4,0.6,7.9,1.3,11.8c0.1,0.3,1.5,9.1,2.8,7c0.8-1.2-1.4-9.1-1.6-10.4
					c-0.9-7.4-1.2-14.9-1.1-22.4c0.1-12.3-0.3-24.5,1-36.8c0.2-1.8,0.3-3.7,0.8-5.5c0.5-1.9-0.1-1.1,1.4-1.8
					c1.5-0.7,3.3-0.6,4.8-1.5c6-3.6,9.1-13,11.5-19.1c2.7-7,4.4-14.5,5.7-21.9c1-5.4,1.7-10.8,2.1-16.3c0.1-1.7,0.1-3.5,0.5-5.2
					c0.1-0.5,0.6-1.3,0.5-1.7c0-0.9-0.6-1.4-0.6-2.1C255.6,191.5,255.1,191.9,254.7,192.3"/>
				<path id="Base" class="st6" d="M196,341.6c0,18.5,15,33.6,33.6,33.6s33.6-15,33.6-33.6"/>
				<path id="Leaf-Me-Alone_x21__3_" class="st7" d="M232.2,341.7h-1.8c0.1-2.2,0.3-4.4,0.7-6.6c1.4-8.4,5.9-20.8,15.6-22.1
					c0.4-0.1,1.7-0.1,3.3,0c0.8-0.4,1.6-0.7,2.5-0.7c8.3-0.6,17.6,6.1,21.6,13.1c3.2,5.6,2.7,13,0.7,19c-1.3,4-4.3,9.7-9.1,9.8
					c-6.1,0.1-6.4-7.4-6.5-11.8c-0.2-5.8-0.9-10.9-5.5-14.9c-1.1-0.9-2.2-1.7-3.3-2.7c-1.7-1.4-3.6-2.9-3.8-5.3
					c-0.3-3.3,1.5-3.9,4.4-3.2c0.5,0.1,5.3,2.3,4.6,0.6c-0.2-0.5-1-0.9-2-1.3c-2.6-0.3-5.7-0.6-6.6-0.4c-9.6,2.1-13.4,15.5-14.4,24
					C232.4,339.9,232.3,340.8,232.2,341.7z"/>
			</g>
			<g id="Plant-Left" transform="translate(22.000000, 79.000000)" class="st8">
				<path id="Leaf" class="st5" d="M108.9,260.7c2.6-3.7,7.3-13,10.9-14.3c2.3-0.8,1.6,7.9,1.7,9.5c0.1,6.4-0.5,12.8-1.3,19.2
					c-1.4,11.5-5.9,21.7-12.2,31.5c-3.2,5-7,10.1-12.2,13.3c-2.4,1.4-5.3,1.7-7.7,2.9c-2.8,1.5-1.3,0.3-2.5,3.2
					c-1.7,4-2.3,9.2-3.1,13.4c-3.7,19.6-12.6,123.1-11,143c0.1,1.8-2.3,2.2-2.4,0c-0.7-11.4,5-90.5,7.8-116.4
					c2.9-25.9,5.7-48.7,8.6-57.7c3.5-10.9,9.8-23.9,15.1-34C103.2,269.6,105.9,265.1,108.9,260.7z"/>
				<path id="Leaf_1_" class="st5" d="M128,387.6c6.7-4.9,13.9,4.3,7.9,9.3c-3.3,2.7-6.8,1.7-8.8-0.5c-1.3,1.6-2.5,3.2-3.6,4.6
					c-3.5,4.2-6.8,8.5-10,12.9c-6.6,9.1-12.2,18.7-18.1,28.2c-5.8,9.3-11.6,18.7-16.8,28.3c-4.5,8.1-10.4,17.6-11.9,26.5
					c2.3-18.8,11.1-36.9,21.6-53.6c10.4-16.5,22.3-34.5,38.3-47.5C124.9,393.3,124.9,389.9,128,387.6z"/>
				<path id="Leaf_2_" class="st5" d="M1.3,341.7c3.7,0.7,9.8,9.2,12.9,12.4c3.7,3.8,7,7.9,10.1,12.2c6.7,9.2,12.8,19,17.9,29.2
					c8.4,16.6,15,33.7,19.9,51.8c3,11.1,4.9,22.6,6,34c0.2,2.2,2.5,18.7-0.8,19.2c-2.9,0.4-2-12.6-2.2-14.4
					c-1.6-19.9-6.4-39.4-13-58.2c-1.4-4.1-2.8-9.1-5.1-12.8c-1.7-2.7,0-1.7-2.9-2.7c-2.5-0.9-5.4-0.7-8-1.7
					c-5.6-2.3-10.1-6.7-14-11.2c-7.6-8.7-13.7-18.1-16.8-29.3C3.6,364,2,357.8,1.1,351.4C0.9,349.7-1.1,341.2,1.3,341.7z"/>
				<path id="Leaf_3_" class="st5" d="M16,201.1c14.1,24.4,25.6,51.2,33.1,78.4c4.5,16.5,7.7,33.3,10.8,50.1
					c4.9,26,9.5,51.9,10.8,78.3c1.3,26.6,3.9,57.2-4.8,82.8c4.3-26,0.2-53.6-0.5-79.8c-0.4-12.5-1.4-24.8-2.7-37.2
					c-1.3-12-3.4-24-5.4-36c-1-5.8-2-11.6-3-17.4c-0.3-1.7-0.4-6.9-1.5-8.1c-1.1-1.2-6.7-1.7-8.5-2.5c-3.6-1.8-6.9-4.3-9.9-6.9
					c-5.7-5.1-10.6-11.7-14.5-18.2c-9-15.1-12.7-33.5-12.5-51c0-3.4,5.5-39.9,3.3-40.4c0.1-0.2,0.3-0.3,0.4-0.5
					C12.8,195.5,14.4,198.3,16,201.1z"/>
				<path id="Leaf_4_" class="st5" d="M167.9,289.1c0.2-0.3,1.6-2.5,0.9-2.4c1.4-0.3-2,2.4,1.6,0.8c-1.7,1.6-0.7,3.7-0.7,5.9
					c0,3.5-0.6,7-1.2,10.5c-1.1,5.5-2.6,10.8-4.9,15.9c-5,11.1-13.4,21.8-23.4,28.7c-4.9,3.4-9.8,4.6-15.4,6.2
					c-3.6,1-3.8,2.8-5.7,6.3c-3.9,7.2-7.8,14.4-11.3,21.8c-4.1,8.9-8.2,17.8-12,26.8c-12.8,30.4-23.2,61.9-28.6,94.6
					c-0.1-19.2,4.3-39,9.9-57.3c4.1-13.3,9.4-26.2,15.1-39c1.4-3.1,3.5-7.1,4-10.5c0.4-2.4-0.8-4.7-1.4-7.2
					c-2.2-9.8-2.1-20.8-0.1-30.6c2.2-10.9,8.4-15.9,19-17.4c3.9-0.6,8.8-0.4,12.3-2c3.9-1.8,5.5-7.7,7.6-11.5
					c5.9-10.2,12.9-19.9,20.9-28.5c2.2-2.4,4.6-4.6,7.2-6.6C163.4,292.2,166.8,290.7,167.9,289.1z"/>
				<path id="Base_1_" class="st6" d="M49.4,483.3h37.5c1.7,0,3.1,1.4,3.1,3.1c0,0.1,0,0.3,0,0.4l-2.9,19.7c-0.9,6-6,10.4-12.1,10.4
					H61.4c-6.1,0-11.2-4.4-12.1-10.4l-2.9-19.7c-0.2-1.7,0.9-3.2,2.6-3.5C49.1,483.3,49.3,483.3,49.4,483.3z"/>
			</g>
			<g id="Maceta" transform="translate(32.000000, 523.000000)">
				<path id="Fill-27" class="st9" d="M20.1,45.3c-0.4,0.8-0.8,1.5-1.2,2.3c0-1.6,0.1-3.3,0.3-4.9c0.4-2.8,1.1-5.7,1.7-8.5
					c0.4-2,0.4-5.7,2-7.3c0.4-0.3,0.6,0.3,0.6,0.6c0,0.1,0-1.2-0.4-1c-2.6,1.3-3.4,5.5-4.3,7.7c-1.2,3.1-2.2,6.2-2.7,9.4
					C16,44.5,16,45.3,16,46.1c-0.1-0.2-0.2-0.4-0.3-0.6c-1.5-3.5-3.5-6.9-6-10.1c-0.6-0.8-8.4-8.4-9-7.3c0.1,0.2,0.2,0.3,0.4,0.4
					c0,0,0,0,0,0c0.5,0.7,1.8,1.9,2.2,2.5c1,1.6,1.8,3.4,2.6,5.1c1.7,3.6,3.3,7.2,4.8,10.8c0.4,0.8,0.7,1.7,1.1,2.5
					C7.8,43.9,2.6,38.7-4.6,35.8c2.5,1.2,4.1,3.6,5.7,5.4c2,2.2,4.1,4.3,6.1,6.4c2.4,2.6,5.1,5.2,7.4,8.1c2.2,4.6,4.3,9.2,5.7,14.1
					c-0.5-1.7,0-4-0.1-5.8c-0.1-1.4-0.2-2.8-0.5-4.2c0.3,0.6,0.5,1.3,0.6,1.8c-0.1-1-0.2-1.9-0.3-2.9c0.3-0.9,0.6-1.7,0.8-2.4
					c1.1-3.6,2.3-7.1,4.1-10.5c1.6-3.2,3.4-6.3,5.4-9.3c0.9-1.4,1.9-2.8,2.8-4.2c0.6-0.9,1.2-2.4,2.1-3.3
					C29.7,34.1,23.6,39.3,20.1,45.3"/>
				<path id="Base_2_" class="st6" d="M3.6,52.4c0,11.3,0.9,20.5,12.9,20.5s12.9-9.2,12.9-20.5"/>
			</g>
		</g>
		<path class="st10" d="M3.8,821.2c31.5-12.1,142.4-28.6,173.1-44.4c28.1-14.5,55.9-30.3,83.1-48.2c37.7-24.8,71.7-55.6,111.8-72.5
			c121-50.9,256.6-37.8,376.5,13.6c4.2,1.8,55.3,19.3,55.3,23.1c0,0,0.1,128.6,0.1,128.6S3.8,821.2,3.8,821.2z"/>
		<g id="humaaans_x2F_sitting-2">
			
				<g id="A-Human_x2F_Sitting_1_" transform="translate(190.000000, 200.500000) scale(-1, 1) translate(-190.000000, -200.500000) translate(40.000000, 24.000000)">
				<g id="Head_x2F_Front_x2F_Rad" transform="translate(82.000000, 0.000000)">
					<g id="Head_1_" transform="translate(54.000000, 31.000000)">
						<path class="st11" d="M-21.1,410.8h-26.3l4.5-31.5c-7.1,4.3-14.1,6.3-17.4,5.5c-8.2-2.1-9-32.2-2.6-44
							c6.4-11.8,39-17,40.7,6.5c0.6,8.1-2.8,15.4-7.9,21.3L-21.1,410.8z"/>
					</g>
					<path id="hair" class="st4" d="M43.3,370.5c2.8,0.1,6.2,1.4,7.7,4.2c1.9,3.6-0.8,7.7-3.8,9.4c5.4,4.8-4.4,11.3-8.4,11.6
						c0.7,2.9-2.7,3.9-4.5,4.7c1.2,1.5,1.5,3.7,0.1,5.2c-1.5,1.6-4.3,1.7-6,0.5c-0.4-0.3-0.5-0.7-0.9-1.1c-0.3-0.3-0.7-0.3-1-0.4
						c-0.9-0.3-1.5-1.3-2-2.3c-0.9-1.8-1.2-4-2.6-5.5c1.8-0.8,4-1.5,5.3-3.4c2.1-3.2-0.2-7.6-3.5-8.5c-3-0.8-6.3,0.9-8.2,3.3
						c-0.6-1.7-1.5-3.4-2.8-4.7c-0.7-0.8-2.1-2-0.3-2.4c3.8-1,7.9-1.4,11.7-2.3c-4,0-8,0.4-12,0c-1.3-0.1-2.5-0.3-3.1-1.7
						c-0.7-1.6-1.3-3.7-1.4-5.5c-1.4,0.5-2.7,1.2-4.1,1.1c-0.6,0-1.1-0.2-1.6-0.2c-0.6,0-1,0.2-1.5,0.7c-1.8,1.7-4.1,2.8-6.4,3.4
						c-1.3,0.3-2.8,0.6-4.2,0.5c-0.2,0-0.4-0.1-0.5-0.2c-0.3-0.1-0.8,0.1-1.1,0.1c-1,0-2-0.1-2.7-0.8c-1.7-1.6-1.2-4.2,0.8-5
						c-1.7-1.3-3.3-2.7-4.6-4.5c-0.6-0.8-1.3-1.7-1.7-2.6c-0.3-0.5-0.6-1.3-0.5-1.9c0.5-1.9,4.2-0.7,5.2-0.2
						c0.1-0.5,0.2-0.8,0.1-1.3c-0.1-0.4-0.1-0.8,0-1.2c0.2-0.7,0.8-1,1.4-1.3c0.7-0.3,1.5-0.5,2.3-0.5c0.4,0,1.3,0.3,1.5-0.2
						c0.2-0.4-0.1-1.1-0.1-1.5c-0.1-0.7-0.2-1.4-0.3-2.1c-0.1-1-0.2-1.9-0.2-2.9c0-0.7-0.2-1.4,0-2.1c0.4-1.8,2.4-1.9,3.8-1.6
						c1,0.2,1.9,0.6,2.7,1.2c0.6,0.4,1.1,0.9,1.7,1.3c0.4,0.3,0.7,0.7,1.1,0.4c1-0.7,1.5-2.2,2.3-3.1c0.8-1.1,2-1.9,3.2-2.3
						c2.6-1,5.6-0.3,7.8,1.3c0.5,0.4,1,0.8,1.4,1.3c0.4,0.4,0.6,0.7,1.2,0.6c0.5-0.1,1-0.5,1.4-0.8c0.5-0.3,1.1-0.7,1.6-0.9
						c2.2-1.2,4.6-1.7,7-1.4c2.4,0.3,4.4,1.5,5.7,3.7c1.3,2.3,1.8,5.1,1.8,7.7c1.2-0.5,2.3-1.3,3.5-1.7c1.2-0.4,2.6-0.6,3.9-0.5
						c2,0.1,4.1,0.8,5.5,2.4c1.8,1.9,1.8,4.8,1.2,7.2c-0.3,1.2-0.7,2.4-1.1,3.6C44.6,368.4,44.1,369.6,43.3,370.5"/>
				</g>
				<g id="Body_x2F_Pointing-Forward" transform="translate(22.000000, 82.000000)">
					<path id="Skin_1_" class="st12" d="M29.9,397.6L2.3,372.3c-14.6-4-21.2-7-20-8.8c1.9-2.8,5.8-0.4,7.3-2.1
						c1.6-1.7-1.4-7.5-4.5-13c-3.1-5.4,0.2-5,2.1-4.2c6.1,4.2,12.4,10,18.7,17.5L44,382.5L29.9,397.6z M-16.6,416.9
						c-7.2-5.2-13.9-8.7-20.1-10.4c-11.9-3.3-16.7-5.8-22.5-13.2c-3.1-4-5.7-11.9-2.8-14.5c2-1.8,13.6,6.9,18.3,7.9
						s0.4-10.3,2.9-9.1c3.3,0.1,6.1,4.5,8.4,13.5l16.7,9.2L-16.6,416.9z"/>
					<path id="Sleeve" class="st13" d="M52.6,402.7c-16.1,0.5-34.5-10.2-47.6-23.2l7.4-16.6c19,12,36.7,14.9,50.1,15
						C71.7,387,65.2,402.4,52.6,402.7z"/>
				</g>
				<g id="Bottom_x2F_Sitting_x2F_Wheelchair_1_" transform="translate(0.000000, 187.000000)">
					<path id="Skin_2_" class="st11" d="M16.4,407.8c4.3,7,14.5,26.7,25.3,49.7c6.3,13.5,14.5,36.5,24.4,69.2l-12.6,5.8
						C30.8,496,13.8,467.7,2.7,447.7c0.6,5.9,1.3,12.2,1.9,18.7c2,22.3,0,70.3-1.1,84.1c-0.7,8.7-12.5,6.4-13.6-0.5
						c-1.1-7-21.1-114.9-21.1-138.1c0-8.8,18.5-18.1,26.3-7.4C1.5,399.8,10.7,398.6,16.4,407.8z"/>
					<path id="Leg-Back_1_" class="st14" d="M37.2,518.8C34.8,512.2-6,441-14.1,419c-3.5-9.7,25.6-29.8,36-13.1l43.3,102.7
						L37.2,518.8z"/>
					<path id="Leg-Front_1_" class="st4" d="M-19.5,398.4c17.1-2.5,53-7.1,107.5-13.6h63.8c-1.1,38.3-14.7,58.5-47.6,57.3
						c-22.8-0.9-98.9-12.3-100.8-11.4c-0.8,0.4,1.4,30.3,6.8,89.8l-30.9,1c0-6.4-12.8-74.8-12.8-103.9
						C-33.6,409.6-30.5,400-19.5,398.4z"/>
					<g id="Accessories_x2F_Shoe_x2F_Flat-Sneaker_2_" transform="translate(243.000000, 111.000000)">
						<path id="shoe_2_" class="st15" d="M-237.9,423c-0.5-1.1-1.8-1.6-2.9-1.1l0,0c-2.9,1.3-5.1,2-6.7,2c-2,0-4.6-0.7-7.8-2.2
							l-1.8-4.5c0,0,0,0,0,0c-0.2-0.6-0.9-0.8-1.4-0.6l-28.7,12.8c-2.3,0.3-5.2,0.7-8.6,1.1c-3.5,0.4-4.4,3.3-2.8,8.6
							c38.9,0,59.6,0,61.9,0c0.7-3.8,1-6.7,1-8.7c0-1.6-0.6-4.1-1.8-7.4C-237.9,423.1-237.9,423-237.9,423z"/>
					</g>
					<g id="Accessories_x2F_Shoe_x2F_Flat-Sneaker_3_" transform="translate(243.000000, 111.000000)">
						<path id="shoe_3_" class="st15" d="M-175.2,416.6c-0.6-1.1-1.9-1.4-3-0.8l0,0c-2.7,1.6-4.9,2.4-6.6,2.5c-2,0.2-4.7-0.4-8-1.6
							l-2.2-4.3c0,0,0,0,0,0c-0.3-0.5-1-0.7-1.5-0.4l-27.6,15.2c-2.3,0.5-5.1,1.2-8.5,1.9c-3.4,0.7-4.1,3.7-2,8.8
							c38.8-3.3,59.3-5,61.6-5.2c0.3-3.8,0.4-6.7,0.3-8.7c-0.1-1.6-1-4-2.5-7.2C-175.2,416.6-175.2,416.6-175.2,416.6z"/>
					</g>
					<path id="Base_7_" class="st6" d="M5.9,554L5.9,554c0,2.1-1.7,3.8-3.8,3.8h-50.4c-2.1,0-3.8-1.7-3.8-3.8l0,0
						c0-2.1,1.7-3.8,3.8-3.8H2.1C4.2,550.1,5.9,551.9,5.9,554z"/>
					<path id="Seat_1_" class="st15" d="M166,402.1v49.3c0,2.4-2,4.4-4.4,4.4H26.7v-53.7c0-6.1,4.9-11,11-11H155
						C161.1,391.1,166,396,166,402.1z"/>
					<path id="Wheel-Stuff_9_" class="st15" d="M12.1,546.8H0.4l24.1-146.5c0.9-5.3,5.5-9.2,10.8-9.2h2.4"/>
					<circle id="Front-Wheel_1_" class="st6" cx="5.9" cy="549" r="19.7"/>
					<g id="Wheel_1_" transform="translate(36.000000, 14.000000)">
						<path class="st6" d="M32.4,469.2c0-46,37.3-83.3,83.3-83.3s83.3,37.3,83.3,83.3s-37.3,83.3-83.3,83.3S32.4,515.3,32.4,469.2z
							 M183.7,469.2c0-37.5-30.4-68-68-68s-68,30.4-68,68s30.4,68,68,68S183.7,506.8,183.7,469.2z"/>
						<rect id="Wheel-Stuff_8_" x="111.4" y="541.6" class="st6" width="8.8" height="-144.8"/>
						<path id="Wheel-Stuff_7_" class="st6" d="M69.2,416.5l99.3,99.3c0.9,0.9,0.9,2.2,0,3.1l-3.1,3.1c-0.9,0.9-2.2,0.9-3.1,0
							L63,422.7c-0.9-0.9-0.9-2.2,0-3.1l3.1-3.1C67,415.7,68.4,415.7,69.2,416.5z"/>
						<path id="Wheel-Stuff_6_" class="st6" d="M45.6,464.9h140.4c1.2,0,2.2,1,2.2,2.2v4.4c0,1.2-1,2.2-2.2,2.2H45.6
							c-1.2,0-2.2-1-2.2-2.2v-4.4C43.4,465.8,44.3,464.9,45.6,464.9z"/>
						<path id="Wheel-Stuff_5_" class="st6" d="M63,515.8l99.3-99.3c0.9-0.9,2.2-0.9,3.1,0l3.1,3.1c0.9,0.9,0.9,2.2,0,3.1L69.2,522
							c-0.9,0.9-2.2,0.9-3.1,0l-3.1-3.1C62.2,518,62.2,516.6,63,515.8z"/>
					</g>
				</g>
				<path id="Clothes" class="st13" d="M83.6,417.7h30.4c3.3,0,26,43.5,26,71.7c0,23.1,10.5,44.6,12.6,67.4
					c0.3,3.7,4.2,39.7-2.6,38.9c-16.2-1.9-33,2.4-49.1,3.6c-11.4,0.8-32.5,2.9-38.6-10c-4.9-10.4-6.2-32.5-5.5-44.5
					c-20.2-0.4-44.5-19.2-73-34.2c-0.6-7.3,3.2-19.5,11.5-36.6c33.3,11.9,57.1,16,71.2,12.5C73.5,463.1,82,439.3,83.6,417.7z"/>
			</g>
		</g>
		<g id="humaaans_x2F_standing-12">
			<g id="A-Human_x2F_Standing" transform="translate(43.000000, 35.000000)">
				<g id="Head_x2F_Front_x2F_Afro" transform="translate(82.000000, 0.000000)">
					<path id="Hair-Back" class="st4" d="M460.7,296.5c-3.4-19.8-19-32.9-42.3-32.9c-23.2,0-41,15-34.4,36.3
						c2.6,8.5,11.6,6.7,16.8,12.7c7.3,8.5,12,23.9,24.9,23.9C449,336.5,464.1,316.3,460.7,296.5z"/>
					<g id="Head" transform="translate(54.000000, 31.000000)">
						<path class="st11" d="M379.6,335.1h-27l4.6-32.4c-7.3,4.4-14.5,6.5-17.8,5.7c-8.4-2.2-9.2-33.1-2.7-45.2
							c6.5-12.2,40.1-17.5,41.8,6.6c0.6,8.4-2.9,15.8-8.1,21.9L379.6,335.1z"/>
					</g>
					<path id="Hair" class="st4" d="M389,294.2c-9-1.7,20.9-30.6,41.7-10.4c20.7,20.3-0.1,41.8-5.8,41.8c-0.4-2.9-1.5-5.8-3.1-8.5
						c0.9-1.1,1.4-2.5,1.4-4.1c0-3.7-3.1-6.8-6.9-6.8c-1.2,0-2.3,0.3-3.3,0.8C404.6,300.1,394.2,295.2,389,294.2z"/>
				</g>
				<g id="Bottom_x2F_Standing_x2F_Shorts" transform="translate(0.000000, 187.000000)">
					<polygon id="Leg_7_" class="st14" points="467.3,272.7 445.6,529.2 461.7,529.2 482.2,411.3 524.6,272.7 					"/>
					<path id="Leg_3_" class="st4" d="M475.9,272.7c16.3,72.8,26.4,114.3,30.2,124.6c3.8,10.2,15,50.6,48.1,128.4l17.2,5.9
						C550.4,446.7,541.6,401.9,541,395c-0.6-6.9-4-46.2-1.2-122.3H475.9z"/>
					<g id="Accessories_x2F_Shoe_x2F_Flat-Sneaker" transform="translate(84.000000, 199.000000)">
						<path id="shoe" class="st11" d="M487.1,326.4c-0.5-1.1-1.9-1.6-3-1.1v0c-2.9,1.4-5.3,2-6.9,2c-2.1,0-4.7-0.8-8-2.3l-1.9-4.6
							c0,0,0,0,0,0c-0.3-0.6-0.9-0.8-1.5-0.6L436.3,333c-2.4,0.4-5.3,0.7-8.9,1.2c-3.6,0.4-4.5,3.4-2.9,8.8c40,0,61.2,0,63.6,0
							c0.7-3.9,1-6.9,1-8.9c0-1.7-0.6-4.2-1.9-7.6C487.2,326.5,487.2,326.4,487.1,326.4z"/>
					</g>
					<g id="Accessories_x2F_Shoe_x2F_Flat-Sneaker_1_" transform="translate(178.000000, 199.000000)">
						<path id="shoe_1_" class="st11" d="M287.2,326.4c-0.5-1.1-1.9-1.6-3-1.1v0c-2.9,1.4-5.3,2-6.9,2c-2.1,0-4.7-0.8-8-2.3
							l-1.9-4.6c0,0,0,0,0,0c-0.3-0.6-0.9-0.8-1.5-0.6L236.3,333c-2.4,0.4-5.3,0.7-8.9,1.2c-3.6,0.4-4.5,3.4-2.9,8.8
							c40,0,61.2,0,63.6,0c0.7-3.9,1-6.9,1-8.9c0-1.7-0.6-4.2-1.9-7.6C287.3,326.5,287.2,326.4,287.2,326.4z"/>
					</g>
					<polygon id="Bottom" class="st6" points="465.4,272.7 457.2,343.3 512.2,343.3 530.3,272.7 					"/>
					<path id="Bottom_1_" class="st15" d="M472.1,272.7l15.5,70.6h56.2c3.7-29.3,2.6-52.9-3.4-70.6H472.1z"/>
				</g>
				<g id="Body_x2F_Jacket" transform="translate(22.000000, 82.000000)">
					<path id="Skin" class="st12" d="M414,378.1l-33.2,19.6c-8.3,13.1-13.2,18.8-14.7,17c-2.2-2.7,1.3-5.8,0.1-7.8
						s-7.8-0.9-14.1,0.5c-6.3,1.4-4.8-1.7-3.5-3.3c5.9-4.8,13.5-9.2,22.8-13.1l31.9-31.1L414,378.1z M559.7,436.2
						c1.6,3.3,13.6,13.2,21.9,18.9c3.3,2.3,2,5.2,0.7,6c-10.2,6.3-17-1.2-25.8-5.3c-9.7-4.5-8.9,8.2-16.6,4.8
						c2.4-5.3,7.9-15.1,5.3-21.6c-1.2-2.9-9-27.8-23.6-74.7l23.6-0.1C552.6,407.7,557.5,431.7,559.7,436.2z"/>
					<path id="Coat-Back" class="st14" d="M412.2,416.3l-31.6-38.4c41.8-34.3,71.1-72.3,87.9-114.2l9.7,1.7
						C479.7,317.2,454,367.5,412.2,416.3z"/>
					<path id="Shirt" class="st13" d="M490.2,259.3l-26.2,3.9c0,34.2-10.1,75.7-30.2,124.6h86.8
						C516.6,333.1,510.8,292.4,490.2,259.3z"/>
					<path id="Coat-Front" class="st10" d="M490.8,259.3c39.9,39.1,63,94.3,69.3,165.7h-42.3c0.3-4.7,0.6-9.4,0.7-14h-56.9
						c7.1-66.8,11.1-111.2,11.7-133.2l6.3-18.1c4.2-0.2,7.3-0.3,9.3-0.4H490.8C490.8,259.3,490.8,259.3,490.8,259.3
						C490.8,259.3,490.8,259.3,490.8,259.3z"/>
					<path id="Shade" class="st16" d="M518.5,411.5h-15.9c6.5-10.9,10.5-30.7,12.2-59.5C518,370.9,519.2,390.8,518.5,411.5z"/>
					<polygon id="Light" class="st17" points="477.8,376.5 477.8,363.5 505.9,376.5 					"/>
				</g>
			</g>
		</g>
	</g>
</g>
<path class="st18" d="M188.5,978.7H38.4c-4.7,0-8.6-3.8-8.6-8.6V869.3c0-4.7,3.8-8.6,8.6-8.6h150.1c4.7,0,8.6,3.8,8.6,8.6v100.8
	C197.1,974.9,193.2,978.7,188.5,978.7z"/>
<path class="st19" d="M388.6,978.7H238.5c-4.7,0-8.6-3.8-8.6-8.6V869.3c0-4.7,3.8-8.6,8.6-8.6h150.1c4.7,0,8.6,3.8,8.6,8.6v100.8
	C397.2,974.9,393.3,978.7,388.6,978.7z"/>
<path class="st20" d="M586.3,978.7H436.2c-4.7,0-8.6-3.8-8.6-8.6V869.3c0-4.7,3.8-8.6,8.6-8.6h150.1c4.7,0,8.6,3.8,8.6,8.6v100.8
	C594.9,974.9,591.1,978.7,586.3,978.7z"/>
<path class="st21" d="M777.8,978.7H627.7c-4.7,0-8.6-3.8-8.6-8.6V869.3c0-4.7,3.8-8.6,8.6-8.6h150.1c4.7,0,8.6,3.8,8.6,8.6v100.8
	C786.4,974.9,782.5,978.7,777.8,978.7z"/>
<path class="st2" d="M802.3,0.1c-31.4,5-142.1,11.8-172.8,18.4c-28,6-55.8,12.5-83,19.9C508.9,48.6,475,61.3,435,68.3
	c-120.8,21-256.1,15.6-375.9-5.6c-4.2-0.7-55.2-8-55.2-9.5C3.9,53.2,3.8,0,3.8,0S802.3,0.1,802.3,0.1z"/>
<path class="st11" d="M1278.5,77.1H869.3c-6.2,0-11.2-5.1-11.2-11.2v0c0-6.2,5.1-11.2,11.2-11.2h409.2c6.2,0,11.2,5.1,11.2,11.2v0
	C1289.8,72,1284.7,77.1,1278.5,77.1z"/>
<path class="st11" d="M1473.8,137.5H874.5c-6.2,0-11.2-5.1-11.2-11.2v-9.9c0-6.2,5.1-11.2,11.2-11.2h599.3c6.2,0,11.2,5.1,11.2,11.2
	v9.9C1485.1,132.5,1480,137.5,1473.8,137.5z"/>
<path class="st13" d="M1336.8,547H1014c-6.2,0-11.2-5.1-11.2-11.2l0,0c0-6.2,5.1-11.2,11.2-11.2h322.9c6.2,0,11.2,5.1,11.2,11.2l0,0
	C1348.1,541.9,1343,547,1336.8,547z"/>
<path class="st11" d="M1473.8,290.1H874.5c-6.2,0-11.2-5.1-11.2-11.2v-72.5c0-6.2,5.1-11.2,11.2-11.2h599.3
	c6.2,0,11.2,5.1,11.2,11.2v72.5C1485.1,285,1480,290.1,1473.8,290.1z"/>
<path class="st11" d="M1473.8,377.1H874.5c-6.2,0-11.2-5.1-11.2-11.2v-49.5c0-6.2,5.1-11.2,11.2-11.2h599.3
	c6.2,0,11.2,5.1,11.2,11.2v49.5C1485.1,372,1480,377.1,1473.8,377.1z"/>
<path class="st11" d="M1473.8,432.6H874.5c-6.2,0-11.2-5.1-11.2-11.2v-19c0-6.2,5.1-11.2,11.2-11.2h599.3c6.2,0,11.2,5.1,11.2,11.2
	v19C1485.1,427.5,1480,432.6,1473.8,432.6z"/>
<circle class="st13" cx="921.7" cy="535.7" r="58.5"/>
<path class="st13" d="M1212.8,688.7H974.5c-4.6,0-8.3-3.7-8.3-8.3v0c0-4.6,3.7-8.3,8.3-8.3h238.3c4.6,0,8.3,3.7,8.3,8.3v0
	C1221.2,685,1217.4,688.7,1212.8,688.7z"/>
<circle class="st13" cx="906.4" cy="680.4" r="43.2"/>
<path class="st13" d="M1379.9,688.7h-65.4c-4.6,0-8.3-3.7-8.3-8.3l0,0c0-4.6,3.7-8.3,8.3-8.3h65.4c4.6,0,8.3,3.7,8.3,8.3l0,0
	C1388.2,685,1384.5,688.7,1379.9,688.7z"/>
<path class="st13" d="M1212.8,808.7H974.5c-4.6,0-8.3-3.7-8.3-8.3v0c0-4.6,3.7-8.3,8.3-8.3h238.3c4.6,0,8.3,3.7,8.3,8.3v0
	C1221.2,805,1217.4,808.7,1212.8,808.7z"/>
<circle class="st13" cx="906.4" cy="800.4" r="43.2"/>
<path class="st13" d="M1379.9,808.7h-65.4c-4.6,0-8.3-3.7-8.3-8.3l0,0c0-4.6,3.7-8.3,8.3-8.3h65.4c4.6,0,8.3,3.7,8.3,8.3l0,0
	C1388.2,805,1384.5,808.7,1379.9,808.7z"/>
<path class="st13" d="M1212.8,928.7H974.5c-4.6,0-8.3-3.7-8.3-8.3v0c0-4.6,3.7-8.3,8.3-8.3h238.3c4.6,0,8.3,3.7,8.3,8.3v0
	C1221.2,925,1217.4,928.7,1212.8,928.7z"/>
<circle class="st13" cx="906.4" cy="920.4" r="43.2"/>
<path class="st13" d="M1379.9,928.7h-65.4c-4.6,0-8.3-3.7-8.3-8.3l0,0c0-4.6,3.7-8.3,8.3-8.3h65.4c4.6,0,8.3,3.7,8.3,8.3l0,0
	C1388.2,925,1384.5,928.7,1379.9,928.7z"/>
<polygon class="st22" points="261.6,971.4 391.3,971.4 372.8,912.9 360.2,919.2 348.5,897.6 312,947.6 291.3,935.9 "/>
<circle class="st23" cx="264.6" cy="898.3" r="10.8"/>
<g id="Plant" transform="translate(537.000000, 328.000000)">
	<g id="Succulents" transform="translate(13.000000, 0.000000)">
		<path id="Thi-Succs_x21_" class="st22" d="M-56.3,547c3.3,7.7,8.8,13.1,11.7,21.1c1.7,4.8,2.5,9.9,2.5,15.2c0,2.9,0,5.8,0,8.6
			c0,2.8-0.1,5.6-0.3,8.4c-0.2,2.8-0.5,5.6-0.6,8.4c-0.1,2.2-0.1,4.8-0.9,6.8c-0.6,1.6-2.1,1.8-2.5-0.1c-0.2-1.1-0.2-2.3-0.2-3.4
			c0-1.4,0.1-2.8,0.2-4.3c0.2-5.7-0.1-11.4,0.1-17.1c0.1-5.6,0.8-11.1,0-16.7c-0.7-4.6-2.3-8.5-4.2-12.2c-1.8-3.6-3.8-7.1-5.1-11.3
			c-0.4-1.2-0.6-2.4-0.8-3.7C-56.4,546.9-56.3,547-56.3,547z"/>
		<path id="Thi-Succs_x21__1_" class="st22" d="M-57.2,562.3c0.6,0.5,1,1.1,1.4,1.8c0.5,0.8,1.2,1.6,1.7,2.4
			c1.1,1.7,2.1,3.6,3.1,5.4c2,3.4,3.4,7.1,4.2,11.1c0.8,4.1,1,8.4,1.3,12.6c0.3,4.4,0.7,8.9,0.7,13.3c0,2,0.1,4.1-0.1,6.1
			c-0.1,1.2-0.7,2.3-2,2.3c-2.7,0-3.9-3-4.4-5.4c-0.8-3.6-0.9-7.3-0.8-11c0.1-4.4,0.9-8.7,1.2-13.1c0.3-4.6,0.2-9.2-1.4-13.5
			c-0.8-2.2-1.7-4.4-2.6-6.5c-0.4-0.9-0.6-1.9-1.1-2.8c-0.5-1-1.2-1.8-1.6-2.9C-57.4,562.1-57.3,562.2-57.2,562.3z"/>
		<path id="Thi-Succs_x21__2_" class="st22" d="M-26.5,553c0.1-0.1,0.2-0.1,0.2-0.2c-0.2,1-0.7,1.8-1,2.7c-0.3,0.8-0.4,1.7-0.6,2.6
			c-0.5,2.1-1,4.1-1.4,6.2c-0.9,4.2-0.7,8.7-0.1,13.3c0.5,4.4,1.4,8.7,1.8,13.1c0.3,3.6,0.5,7.4,0.2,10.8c-0.2,2.3-0.9,5.2-2.9,4.9
			c-0.9-0.1-1.4-1.2-1.6-2.4c-0.3-2-0.4-4.1-0.5-6.1c-0.3-4.4-0.3-8.8-0.4-13.2c0-4.1-0.2-8.3,0.1-12.3c0.3-3.9,1.1-7.4,2.3-10.6
			c0.6-1.7,1.2-3.4,1.9-5.1c0.3-0.8,0.7-1.5,1.1-2.2C-27.1,554.1-26.9,553.4-26.5,553z"/>
		<path id="Thi-Succs_x21__3_" class="st22" d="M-56.4,575c0.4-0.6,1.1,1.4,1.2,1.6c0-0.1-0.1-0.2-0.2-0.4c0.7,1.2,1.3,2.4,1.7,3.7
			c0.4,1.3,0.7,2.7,1.1,4c0.7,2.5,1.6,4.9,2.2,7.4c0.6,2.5,0.8,4.9,0.6,7.4c-0.2,2.6-0.2,5.3-0.1,7.9c0.1,1.3,0.5,2.4,0.8,3.6
			c0.3,1.2,0.5,2.4,0.8,3.6c0.1-0.2,0.1,0.4,0.1,0.4c0,0.3,0,0.5-0.1,0.8c-0.2,0.7-0.7,1.3-1.4,1.6c-1.3,0.4-2.5-0.8-2.9-2
			c-0.6-1.8-0.9-3.7-1.2-5.5c-0.3-1.7-0.3-3.4-0.2-5.1c0.2-3.4,0.8-6.7,0.9-10.1c0.2-3.7-0.5-7.1-1.2-10.7c-0.3-1.7-0.6-3.4-1.1-5.1
			c-0.2-0.7-0.5-1.3-0.8-1.9C-56.2,576.1-56.6,575.4-56.4,575z"/>
		<path id="Thi-Succs_x21__4_" class="st22" d="M-46,569.3c-0.1,4.2-0.4,8.4-1,12.6c-0.6,4.3-1.2,8.5-1.8,12.7
			c-0.5,4.1-1.1,8.4-1,12.6c0.1,3.1-0.5,8.3,3,9.9c3.5,1.5,4.2-5.1,4.5-7.2c0.4-4.2,0.3-8.4,0.1-12.6c-0.2-4.3-0.6-8.6-1-12.9
			c-0.5-4.8-0.9-9.6-1.2-14.4c-0.2-2.4-0.2-4.7-0.2-7.1c0-2.2,0-4.5-0.8-6.6c0,0-0.1,0.1-0.1,0.1"/>
		<path id="Thi-Succs_x21__5_" class="st22" d="M-28.1,582.6c-0.6,0.9-1.3,1.8-1.8,2.8c-1.1,1.7-2,3.7-2.3,6.1
			c-0.6,5.2-0.1,10.8,0,16.1c0,1.1-0.1,2.1,0.3,3.2c0.4,0.9,1.1,1.7,1.8,1.7c1.5,0,1.3-3.6,1.3-5.2c0-2.8-0.3-5.6-0.3-8.4
			c0-2.8,0.2-5.6,0.6-8.2c0.4-2.7,1-5.2,1.8-7.6c0.1-0.3,0.9-2.9,0.2-2.5"/>
		<path id="Thi-Succs_x21__6_" class="st22" d="M-34.6,555c-1,0-1,4.9-1,5.5c-0.1,2.3-0.1,4.5-0.1,6.8c-0.1,4.9-0.3,9.9-1.1,14.8
			c-0.4,2.6-0.9,5.2-1.4,7.8c-0.5,2.6-1.2,5.2-1.5,7.9c-0.3,2.5-0.1,5.1-0.1,7.7c0,2.6,0.1,5.1,0.5,7.7c0.1,0.6,0.2,1.3,0.3,1.9
			c0.1,0.5,0,1.2,0.2,1.7c0.2,0.8,1.2,1.1,1.9,0.9c1.8-0.3,3-2.6,3.6-4.3c0.8-2.2,1.2-4.5,1.6-6.8c0.5-2.6,0.8-5.2,0.9-7.8
			c0.3-5.3-0.1-10.6-0.5-15.9c-0.2-2.9-0.5-5.9-0.8-8.8c-0.4-2.9-0.9-5.8-1.2-8.7c-0.2-2.1-0.4-4.3-0.6-6.4
			C-33.8,558.3-33.9,555-34.6,555"/>
		<path id="Thi-Succs_x21__7_" class="st22" d="M-35.8,590.4c-0.2-5.1-2.2-27.6-2.7-33.7c-0.1-1.5-1.2-8-1.4-9.7
			c-0.4,0.5-0.4,8.2-0.4,10c0,1.8-0.2,3.5-0.3,5.2c-0.1,1.8-2.7,24.8-3.1,26.5c-0.7,3.4-1.1,6.9-1.5,10.4c-0.3,3.4-0.9,7-0.4,10.4
			c0.1,0.8,0.3,1.6,0.5,2.3c0.3,0.8,0.5,1.5,0.7,2.3c0.4,1.3,1.1,2.5,2.1,3c2.2,1.1,3.3-1.4,3.9-3.6c0.9-3.5,1.5-7.1,1.8-10.7
			C-36.2,598.6-35.7,594.5-35.8,590.4"/>
	</g>
	<g id="Planter" transform="translate(0.000000, 159.000000)">
		<path id="Vase" class="st24" d="M-44.9,446.5h32c0.4,0,0.7,0.3,0.7,0.7v32c0,0.4-0.3,0.7-0.7,0.7h-32c-0.4,0-0.7-0.3-0.7-0.7v-32
			C-45.6,446.8-45.3,446.5-44.9,446.5z"/>
		<path id="Leg" class="st22" d="M-48.6,450.1h2.2c0.4,0,0.7,0.3,0.7,0.7V491c0,0.4-0.3,0.7-0.7,0.7h-2.2c-0.4,0-0.7-0.3-0.7-0.7
			v-40.1C-49.3,450.5-49,450.1-48.6,450.1z"/>
		<path id="Leg_1_" class="st22" d="M-30.2,450.1h2.2c0.4,0,0.7,0.3,0.7,0.7V491c0,0.4-0.3,0.7-0.7,0.7h-2.2c-0.4,0-0.7-0.3-0.7-0.7
			v-40.1C-30.9,450.5-30.6,450.1-30.2,450.1z"/>
		<path id="Leg_2_" class="st22" d="M-11.4,450.1h2.2c0.4,0,0.7,0.3,0.7,0.7V491c0,0.4-0.3,0.7-0.7,0.7h-2.2c-0.4,0-0.7-0.3-0.7-0.7
			v-40.1C-12.1,450.5-11.8,450.1-11.4,450.1z"/>
	</g>
</g>
<path class="st25" d="M778.1,978.7H627.4c-4.6,0-8.3-3.7-8.3-8.3c0-1.6,7.8-7.1,9.2-8.4c3.7-3.4,7.4-6.7,11-10.1
	c11.2-10.2,22.1-20.6,33.3-30.7c5.5-5,10.4-11.4,17.7-13.9c1.5-0.5,3.1-0.8,4.7-0.5c6.5,1.4,9.5,11.2,11.7,16.3
	c3.4,7.8,9,12,17.5,13.4c12.7,2,23.6,4.7,32.7-6.1c5.9-7.1,10.4-17.5,21.1-17.5c4.6,0,8.3,3.7,8.3,8.3v49.2
	C786.4,975,782.7,978.7,778.1,978.7z"/>
<path class="st1" d="M195.2,918.2c-6-9.9-16-2.5-22.7,3.7c-2-12.3-12.7-21.7-25.6-21.7c-14.3,0-25.8,11.5-25.9,25.8
	c-5.6-5.2-11.3-10.4-18.8-12c-14.2-3-24.6,9.5-33.4,18.6l-7.7-13.3l-27.3,47.3h1c-0.6,0.7-1.3,1.3-1.9,1.9c-0.9,0.9-1.8,1.9-2.1,3.1
	c-1.4,4.7,5.5,7.1,10.4,7.1c48.8,0,97.5,0.1,146.3,0.1c0.5,0,0.9,0,1.4,0c1.9-0.1,3.8-0.3,5.3-1.5c2.4-1.9,2.7-5.5,2.7-8.6
	c0.2-12.7,0.3-25.4,0.5-38.1C197.4,926.3,197.4,921.8,195.2,918.2z"/>
</svg>
