<?xml version="1.0" encoding="utf-8"?>
<!-- Generator: Adobe Illustrator 22.1.0, SVG Export Plug-In . SVG Version: 6.00 Build 0)  -->
<!DOCTYPE svg PUBLIC "-//W3C//DTD SVG 1.1//EN" "http://www.w3.org/Graphics/SVG/1.1/DTD/svg11.dtd">
<svg version="1.1" id="Layer_1" xmlns="http://www.w3.org/2000/svg" xmlns:xlink="http://www.w3.org/1999/xlink" x="0px" y="0px"
	 viewBox="0 0 1024 1024" style="enable-background:new 0 0 1024 1024;" xml:space="preserve">
<style type="text/css">
	.st0{fill:#83D1F5;}
	.st1{fill:#BAE6FB;}
</style>
<g>
	<g>
		
			<rect x="177.7" y="263.4" transform="matrix(0.9302 -0.3671 0.3671 0.9302 -152.251 224.5334)" class="st0" width="672.7" height="498.1"/>
		<path class="st1" d="M37.7,376.2L250.8,916l714-281.8L751.7,94.4L37.7,376.2z M876.1,597.2L290.3,828.4L126.4,413.2l585.8-231.2
			L876.1,597.2z"/>
		<polygon class="st1" points="340.1,772.3 812.4,585.9 661,399.2 624.2,440.3 550.4,378.4 489.5,612.9 397.2,600 		"/>
		<circle class="st1" cx="280.2" cy="486.2" r="60"/>
	</g>
	<g>
		<rect x="275.4" y="401.9" class="st0" width="672.7" height="498.1"/>
		<path class="st1" d="M218.7,349.3v580.3h767.6V349.3H218.7z M917.4,862.7H287.6V416.2h629.8V862.7z"/>
		<polygon class="st1" points="354.5,828.8 862.3,828.8 790,599.5 740.7,624.2 694.8,539.6 552,735.3 470.9,689.5 		"/>
		<circle class="st1" cx="403.9" cy="540.7" r="60"/>
	</g>
</g>
</svg>
